<svg width="302" height="273" viewBox="0 0 302 273" fill="none" xmlns="http://www.w3.org/2000/svg">
<g filter="url(#filter0_d)">
<path d="M255.84 108.056C251.713 42.6205 203.622 28.3272 145.641 31.984C87.6596 35.6408 41.7452 55.8629 45.8721 121.298C49.999 186.733 98.0903 201.026 156.071 197.37C173.534 196.268 189.903 193.664 204.139 188.775L248.037 205.634L237.967 168.071C250.694 154.449 257.547 135.119 255.84 108.056Z" fill="#E11754"/>
</g>
<path d="M237.622 93.9111C240.506 139.651 206.006 152.937 162.586 155.676C119.167 158.414 83.6114 154.978 80.3854 103.828C77.1594 52.6775 112.001 44.8015 155.421 42.0631C198.84 39.3247 234.737 48.1709 237.622 93.9111Z" fill="url(#paint0_linear)"/>
<path d="M140.943 123.589C140.943 121.153 141.743 119.139 143.344 117.546C144.946 115.859 146.971 115.016 149.419 115.016C155.636 115.016 160.628 113.564 164.395 110.659C168.163 107.755 170.046 103.258 170.046 97.1676C170.046 92.4829 168.351 88.5946 164.96 85.5027C161.57 82.4108 157.331 80.8649 152.245 80.8649C147.065 80.8649 142.497 82.5982 138.541 86.0649C136.28 88.1261 133.926 89.1568 131.477 89.1568C129.687 89.1568 128.086 88.5946 126.673 87.4703C124.224 85.5964 123 83.3946 123 80.8649C123 78.7099 123.895 76.7423 125.684 74.9622C129.075 71.4955 133.031 68.8252 137.552 66.9513C142.167 64.9838 147.065 64 152.245 64C158.65 64 164.489 65.4522 169.764 68.3568C175.038 71.2613 179.23 75.2901 182.338 80.4432C185.446 85.5027 187 91.0775 187 97.1676C187 106.162 184.41 113.283 179.23 118.53C174.049 123.777 167.174 127.056 158.603 128.368C158.132 128.555 157.896 128.789 157.896 129.07V134.27C157.896 136.706 157.096 138.768 155.494 140.454C153.893 142.047 151.868 142.843 149.419 142.843C146.971 142.843 144.946 142.047 143.344 140.454C141.743 138.768 140.943 136.706 140.943 134.27V123.589ZM148.713 168C145.982 168 143.862 167.297 142.355 165.892C140.943 164.393 140.236 162.285 140.236 159.568V157.178C140.236 154.461 140.943 152.4 142.355 150.995C143.862 149.495 145.982 148.746 148.713 148.746H150.55C153.281 148.746 155.353 149.495 156.766 150.995C158.273 152.4 159.026 154.461 159.026 157.178V159.568C159.026 162.285 158.273 164.393 156.766 165.892C155.353 167.297 153.281 168 150.55 168H148.713Z" fill="white"/>
<path d="M156.552 141.517L156.568 141.502L156.582 141.487C158.462 139.507 159.396 137.07 159.396 134.27V129.76C167.97 128.352 174.969 124.98 180.297 119.584C185.813 113.997 188.5 106.464 188.5 97.1676C188.5 90.8098 186.874 84.9638 183.619 79.6633C180.375 74.2865 175.991 70.0735 170.487 67.0428C164.977 64.0085 158.886 62.5 152.245 62.5C146.872 62.5 141.776 63.5211 136.971 65.5685C132.27 67.5178 128.149 70.2986 124.619 73.9061C122.604 75.9141 121.5 78.2457 121.5 80.8649C121.5 83.9606 123.028 86.5659 125.751 88.653C127.424 89.9806 129.349 90.6568 131.477 90.6568C134.382 90.6568 137.078 89.4248 139.54 87.1836C143.225 83.9589 147.439 82.3649 152.245 82.3649C157.001 82.3649 160.866 83.7992 163.95 86.6111C167.021 89.4121 168.546 92.8947 168.546 97.1676C168.546 102.935 166.778 106.928 163.479 109.472C160.045 112.119 155.406 113.516 149.419 113.516C146.591 113.516 144.17 114.506 142.271 116.498C140.374 118.393 139.443 120.796 139.443 123.589V134.27C139.443 137.07 140.377 139.507 142.257 141.487L142.271 141.502L142.287 141.517C144.194 143.415 146.611 144.343 149.419 144.343C152.228 144.343 154.645 143.415 156.552 141.517ZM141.264 166.921L141.297 166.956L141.332 166.989C143.198 168.728 145.729 169.5 148.713 169.5H150.55C153.527 169.5 156.039 168.731 157.824 166.955C159.687 165.102 160.526 162.567 160.526 159.568V157.178C160.526 154.203 159.699 151.701 157.824 149.931C156.046 148.067 153.535 147.246 150.55 147.246H148.713C145.703 147.246 143.16 148.079 141.298 149.931C139.511 151.708 138.736 154.211 138.736 157.178V159.568C138.736 162.542 139.514 165.064 141.264 166.921Z" stroke="black" stroke-opacity="0.05" stroke-width="3"/>
<defs>
<filter id="filter0_d" x="0.656738" y="0.362823" width="301.282" height="272.637" filterUnits="userSpaceOnUse" color-interpolation-filters="sRGB">
<feFlood flood-opacity="0" result="BackgroundImageFix"/>
<feColorMatrix in="SourceAlpha" type="matrix" values="0 0 0 0 0 0 0 0 0 0 0 0 0 0 0 0 0 0 127 0"/>
<feOffset dy="15"/>
<feGaussianBlur stdDeviation="20"/>
<feColorMatrix type="matrix" values="0 0 0 0 0 0 0 0 0 0 0 0 0 0 0 0 0 0 0.15 0"/>
<feBlend mode="normal" in2="BackgroundImageFix" result="effect1_dropShadow"/>
<feBlend mode="normal" in="SourceGraphic" in2="effect1_dropShadow" result="shape"/>
</filter>
<linearGradient id="paint0_linear" x1="353.585" y1="-191.781" x2="132.791" y2="143.102" gradientUnits="userSpaceOnUse">
<stop stop-color="white"/>
<stop offset="1" stop-color="white" stop-opacity="0"/>
</linearGradient>
</defs>
</svg>
